<svg width="40" height="41" viewBox="0 0 40 41" fill="none" xmlns="http://www.w3.org/2000/svg">
<path d="M40 40.0522H0V0.0522461H40V40.0522ZM15.8486 10.4233C15.6962 10.2628 15.451 10.2341 15.2744 10.3677C13.108 12.0059 10.042 16.1719 13.6865 20.896C14.6555 22.1519 15.775 23.3028 16.7783 24.3081C17.7838 25.3116 18.9353 26.4318 20.1914 27.4009C24.9152 31.0449 29.0815 27.9793 30.7197 25.813C30.8533 25.6363 30.8238 25.3902 30.6631 25.2378L29.0635 23.7222C26.2724 20.9311 26.2724 20.9312 24.1377 23.0659C22.6469 24.5567 20.861 22.6285 19.666 21.4214C18.4589 20.2264 16.5295 18.4397 18.0205 16.9487C20.1553 14.8139 20.1555 14.8141 17.3643 12.0229L15.8486 10.4233Z" fill="#050220"/>
</svg>
