<svg width="40" height="41" viewBox="0 0 40 41" fill="none" xmlns="http://www.w3.org/2000/svg">
<path d="M40 40.0522H0V0.0522461H40V40.0522ZM20.9961 9.05225C15.4833 9.05235 10.9992 13.5378 10.999 19.0522C10.999 21.2389 11.7043 23.2681 12.9033 24.9136L11.6572 28.6294L15.5 27.4009C17.0809 28.4471 18.9681 29.0522 21.001 29.0522C26.514 29.0522 30.999 24.5669 30.999 19.0522C30.9989 13.5377 26.5139 9.05225 21.001 9.05225H20.9961ZM17.2344 13.6255C17.8603 13.6255 17.9981 13.6382 18.2041 14.1323C18.4451 14.7144 19.0332 16.1477 19.1035 16.2954C19.3924 16.8984 18.8097 17.2519 18.3867 17.7769C18.2517 17.9349 18.0986 18.1059 18.2695 18.3999C18.4395 18.688 19.0276 19.6463 19.8916 20.4155C21.0076 21.4098 21.9123 21.7278 22.2363 21.8628C22.4773 21.9628 22.7654 21.9394 22.9414 21.7515C23.1644 21.5104 23.4416 21.1104 23.7236 20.7163C23.9226 20.4342 24.1754 20.3985 24.4404 20.4985C24.6197 20.5607 26.8942 21.6176 26.9902 21.7866C27.0611 21.91 27.0611 22.4915 26.8203 23.1733C26.5793 23.8555 25.6214 24.4204 24.8574 24.5854C24.3344 24.6965 23.6524 24.7838 21.3545 23.8315C18.7735 22.7622 15.1895 18.9532 15.1895 16.4185C15.1896 15.1281 15.9335 13.6255 17.2344 13.6255Z" fill="#050220"/>
</svg>
