<svg width="236" height="34" viewBox="0 0 236 34" fill="none" xmlns="http://www.w3.org/2000/svg">
<path fill-rule="evenodd" clip-rule="evenodd" d="M8.39299 4.68303C10.9493 3.60671 13.6949 3.05225 16.4685 3.05225H25.9091V9.87043H16.4685C14.6037 9.87043 12.7576 10.2432 11.0388 10.9669C8.48256 12.0432 5.7369 12.5977 2.96326 12.5977H0V5.77952H2.96326C4.82816 5.77952 6.67424 5.40671 8.39299 4.68303ZM8.39299 14.9103C10.9493 13.834 13.6949 13.2795 16.4685 13.2795H20.8916C25.5454 13.2795 29.3182 17.0523 29.3182 21.7061V21.8984C29.3182 26.5522 25.5454 30.325 20.8916 30.325H16.4685C14.6037 30.325 12.7576 30.6978 11.0388 31.4215C8.48256 32.4978 5.7369 33.0522 2.96326 33.0522H0V26.2341H2.96326C4.82816 26.2341 6.67424 25.8612 8.39299 25.1376C10.9493 24.0612 13.6949 23.5068 16.4685 23.5068H20.8916C21.7799 23.5068 22.5 22.7867 22.5 21.8984V21.7061C22.5 20.8178 21.7799 20.0977 20.8916 20.0977H16.4685C14.6037 20.0977 12.7576 20.4705 11.0388 21.1942C8.48256 22.2705 5.7369 22.825 2.96326 22.825H0V16.0068H2.96326C4.82816 16.0068 6.67424 15.634 8.39299 14.9103Z" fill="#050220"/>
<path d="M43.1186 28.6051V6.51814H47.1626V14.7308H51.6734C54.2657 14.7308 56.2878 15.3529 57.7395 16.5973C59.1912 17.8416 59.9171 19.5422 59.9171 21.699C59.9171 23.8559 59.1912 25.5461 57.7395 26.7697C56.2878 27.9933 54.2657 28.6051 51.6734 28.6051H43.1186ZM47.1626 25.0899H51.4867C52.897 25.0899 53.9546 24.8099 54.6598 24.2499C55.3856 23.6692 55.7486 22.8189 55.7486 21.699C55.7486 20.5791 55.3856 19.7288 54.6598 19.1481C53.9546 18.5675 52.897 18.2771 51.4867 18.2771H47.1626V25.0899ZM43.5852 10.0334V6.51814H58.9216V10.0334H43.5852ZM64.7705 28.6051V6.51814H79.6403V10.0334H68.8146V15.7884H79.267V19.2726H68.8146V25.0899H79.8892V28.6051H64.7705ZM84.6908 28.6051V6.51814H93.2456C95.838 6.51814 97.86 7.14031 99.3117 8.38464C100.763 9.62898 101.489 11.3503 101.489 13.5486C101.489 15.0211 101.158 16.2965 100.494 17.375C99.8302 18.4327 98.8866 19.2415 97.663 19.8014C96.4394 20.3614 94.9669 20.6414 93.2456 20.6414H88.7349V28.6051H84.6908ZM88.7349 17.1261H93.059C94.4277 17.1261 95.475 16.8254 96.2009 16.224C96.9475 15.6225 97.3208 14.7308 97.3208 13.5486C97.3208 12.3873 96.9475 11.5162 96.2009 10.9355C95.475 10.3341 94.4277 10.0334 93.059 10.0334H88.7349V17.1261ZM105.674 28.6051V6.51814H120.544V10.0334H109.718V15.7884H120.171V19.2726H109.718V25.0899H120.793V28.6051H105.674ZM125.595 28.6051V6.51814H141.367V10.0334H129.639V28.6051H125.595ZM153.238 29.1028C151.061 29.1028 149.184 28.6466 147.608 27.7341C146.031 26.8008 144.818 25.4735 143.968 23.7522C143.138 22.0309 142.724 19.9777 142.724 17.5927C142.724 15.2078 143.138 13.1546 143.968 11.4333C144.818 9.6912 146.031 8.35354 147.608 7.42028C149.184 6.48703 151.061 6.02041 153.238 6.02041C155.457 6.02041 157.344 6.48703 158.9 7.42028C160.476 8.35354 161.679 9.6912 162.508 11.4333C163.359 13.1546 163.784 15.2078 163.784 17.5927C163.784 19.9777 163.359 22.0309 162.508 23.7522C161.679 25.4735 160.476 26.8008 158.9 27.7341C157.344 28.6466 155.457 29.1028 153.238 29.1028ZM153.238 25.5876C154.586 25.5876 155.727 25.2765 156.66 24.6543C157.614 24.0114 158.34 23.0989 158.838 21.9168C159.356 20.7139 159.615 19.2726 159.615 17.5927C159.615 15.9129 159.356 14.4715 158.838 13.2687C158.34 12.0658 157.614 11.1429 156.66 10.5C155.727 9.85711 154.586 9.53565 153.238 9.53565C151.932 9.53565 150.801 9.85711 149.847 10.5C148.893 11.1429 148.157 12.0658 147.639 13.2687C147.141 14.4715 146.892 15.9129 146.892 17.5927C146.892 19.2726 147.141 20.7139 147.639 21.9168C148.157 23.0989 148.893 24.0114 149.847 24.6543C150.801 25.2765 151.932 25.5876 153.238 25.5876ZM168.048 28.6051V6.51814H176.323C179.019 6.51814 181.062 6.99514 182.451 7.94913C183.861 8.90312 184.566 10.4171 184.566 12.491C184.566 13.4242 184.369 14.2434 183.975 14.9485C183.602 15.6329 183.042 16.1721 182.296 16.5662C181.57 16.9602 180.688 17.178 179.651 17.2194L179.62 17.1572C181.507 17.2194 182.959 17.7379 183.975 18.7126C184.992 19.6666 185.5 20.9421 185.5 22.539C185.5 24.5714 184.795 26.0957 183.384 27.1119C181.995 28.1074 180.014 28.6051 177.443 28.6051H168.048ZM172.092 25.1832H177.256C178.521 25.1832 179.517 24.9239 180.242 24.4055C180.989 23.887 181.362 23.1197 181.362 22.1034C181.362 21.0872 180.999 20.3095 180.274 19.7703C179.548 19.2311 178.542 18.9615 177.256 18.9615H172.092V25.1832ZM172.092 15.7884H176.198C177.526 15.7884 178.563 15.5396 179.309 15.0418C180.056 14.5441 180.429 13.8182 180.429 12.8643C180.429 11.8688 180.066 11.1326 179.34 10.6556C178.614 10.1786 177.567 9.94006 176.198 9.94006H172.092V15.7884ZM199.671 29.1028C197.493 29.1028 195.617 28.6466 194.04 27.7341C192.464 26.8008 191.251 25.4735 190.401 23.7522C189.571 22.0309 189.156 19.9777 189.156 17.5927C189.156 15.2078 189.571 13.1546 190.401 11.4333C191.251 9.6912 192.464 8.35354 194.04 7.42028C195.617 6.48703 197.493 6.02041 199.671 6.02041C201.89 6.02041 203.777 6.48703 205.333 7.42028C206.909 8.35354 208.112 9.6912 208.941 11.4333C209.792 13.1546 210.217 15.2078 210.217 17.5927C210.217 19.9777 209.792 22.0309 208.941 23.7522C208.112 25.4735 206.909 26.8008 205.333 27.7341C203.777 28.6466 201.89 29.1028 199.671 29.1028ZM199.671 25.5876C201.019 25.5876 202.16 25.2765 203.093 24.6543C204.047 24.0114 204.773 23.0989 205.271 21.9168C205.789 20.7139 206.048 19.2726 206.048 17.5927C206.048 15.9129 205.789 14.4715 205.271 13.2687C204.773 12.0658 204.047 11.1429 203.093 10.5C202.16 9.85711 201.019 9.53565 199.671 9.53565C198.365 9.53565 197.234 9.85711 196.28 10.5C195.326 11.1429 194.59 12.0658 194.072 13.2687C193.574 14.4715 193.325 15.9129 193.325 17.5927C193.325 19.2726 193.574 20.7139 194.072 21.9168C194.59 23.0989 195.326 24.0114 196.28 24.6543C197.234 25.2765 198.365 25.5876 199.671 25.5876ZM232.679 28.6051H228.635V12.4598L219.24 28.6051H214.388V6.51814H218.432V23.13L227.92 6.51814H232.679V28.6051ZM223.471 4.49609C222.082 4.49609 220.962 4.11242 220.111 3.34508C219.282 2.557 218.836 1.47858 218.774 0.109809H221.169C221.252 0.814934 221.491 1.33341 221.885 1.66523C222.299 1.97631 222.828 2.13186 223.471 2.13186C224.135 2.13186 224.664 1.97631 225.058 1.66523C225.452 1.33341 225.68 0.814934 225.742 0.109809H228.137C228.075 1.47858 227.629 2.557 226.8 3.34508C225.97 4.11242 224.861 4.49609 223.471 4.49609Z" fill="#050220"/>
</svg>
