<svg width="40" height="40" viewBox="0 0 40 40" fill="none" xmlns="http://www.w3.org/2000/svg">
<path d="M40 40H0V0H40V40ZM15.832 10C12.6162 10 10 12.6183 10 15.835V24.168C10 27.3838 12.6183 30 15.835 30H24.168C27.3838 30 30 27.3817 30 24.165V15.832C30 12.6162 27.3817 10 24.165 10H15.832ZM20 15C22.7575 15 25 17.2425 25 20C25 22.7575 22.7575 25 20 25C17.2425 25 15 22.7575 15 20C15 17.2425 17.2425 15 20 15ZM20 16.667C19.1159 16.667 18.2677 17.0175 17.6426 17.6426C17.0175 18.2677 16.667 19.1159 16.667 20C16.667 20.8841 17.0175 21.7323 17.6426 22.3574C18.2677 22.9825 19.1159 23.333 20 23.333C20.8841 23.333 21.7323 22.9825 22.3574 22.3574C22.9825 21.7323 23.333 20.8841 23.333 20C23.333 19.1159 22.9825 18.2677 22.3574 17.6426C21.7323 17.0175 20.8841 16.667 20 16.667ZM25.833 13.333C26.293 13.333 26.667 13.707 26.667 14.167C26.6668 14.6268 26.2929 15 25.833 15C25.3733 14.9998 25.0002 14.6267 25 14.167C25 13.7071 25.3732 13.3332 25.833 13.333Z" fill="#050220"/>
</svg>
