<svg width="108" height="130" viewBox="0 0 108 130" fill="none" xmlns="http://www.w3.org/2000/svg">
<path d="M53.5723 129.343L31.376 107.146H0V0H107.146V107.146H75.7695L53.5723 129.343Z" fill="#534CAB"/>
<path fill-rule="evenodd" clip-rule="evenodd" d="M44.6709 26.7178C49.5262 24.6735 54.7412 23.6204 60.0093 23.6204H77.9406V36.5706H60.0093C56.4674 36.5706 52.9609 37.2787 49.6964 38.6533C44.841 40.6976 39.626 41.7508 34.3578 41.7508H28.7295V28.8005H34.3578C37.9 28.8005 41.4064 28.0924 44.6709 26.7178ZM44.6709 46.1433C49.5262 44.0989 54.7412 43.0458 60.0093 43.0458H68.4105C77.2498 43.0458 84.4157 50.2117 84.4157 59.051V59.4162C84.4157 68.2556 77.2498 75.4215 68.4105 75.4215H60.0093C56.4674 75.4215 52.9609 76.1296 49.6964 77.5042C44.841 79.5485 39.626 80.6016 34.3578 80.6016H28.7295V67.6513H34.3578C37.9 67.6513 41.4064 66.9432 44.6709 65.5686C49.5262 63.5243 54.7412 62.4712 60.0093 62.4712H68.4105C70.0976 62.4712 71.4654 61.1034 71.4654 59.4162V59.051C71.4654 57.3639 70.0976 55.9961 68.4105 55.9961H60.0093C56.4674 55.9961 52.9609 56.7042 49.6964 58.0787C44.841 60.1231 39.626 61.1762 34.3578 61.1762H28.7295V48.2259H34.3578C37.9 48.2259 41.4064 47.5178 44.6709 46.1433Z" fill="#FEFEFE"/>
</svg>
