<svg width="880" height="356" viewBox="0 0 880 356" fill="none" xmlns="http://www.w3.org/2000/svg">
<rect width="880" height="320" transform="translate(0 0.808594)" fill="white"/>
<path d="M0.00012207 320.809L0 355.809H507.467C636.234 355.809 581.027 320.809 709.867 320.809H0.00012207Z" fill="#FEFEFE"/>
<mask id="mask0_448_1203" style="mask-type:alpha" maskUnits="userSpaceOnUse" x="0" y="0" width="880" height="356">
<rect width="880" height="320" transform="translate(0 0.808594)" fill="white"/>
<path d="M61.3698 70.7906V69.0442H62.9792C63.7098 69.0442 64.2691 68.7817 64.6572 68.2566C65.0681 67.7087 65.3535 66.8754 65.5133 65.7568L67.157 53.429H79.2793V71.5782H76.4028V55.963H69.7595L68.3213 66.0307C68.093 67.6744 67.5451 68.8844 66.6776 69.6606C65.8329 70.414 64.6001 70.7906 62.9792 70.7906H61.3698ZM61.3698 76.7148V69.2839H64.2462V76.7148H61.3698ZM61.3698 71.5782V69.0442H81.0942V71.5782H61.3698ZM79.3478 76.7148V69.0442H82.2243V76.7148H79.3478ZM93.1031 71.9892C91.4366 71.9892 89.9755 71.6011 88.7199 70.8249C87.4643 70.0487 86.4941 68.9529 85.8092 67.5375C85.1243 66.0992 84.7819 64.4213 84.7819 62.5036C84.7819 60.5631 85.1243 58.8852 85.8092 57.4698C86.4941 56.0544 87.4643 54.9585 88.7199 54.1824C89.9755 53.4062 91.4366 53.0181 93.1031 53.0181C94.7697 53.0181 96.2193 53.4062 97.4521 54.1824C98.7077 54.9585 99.678 56.0544 100.363 57.4698C101.048 58.8852 101.39 60.5631 101.39 62.5036C101.39 64.4213 101.048 66.0992 100.363 67.5375C99.678 68.9529 98.7077 70.0487 97.4521 70.8249C96.2193 71.6011 94.7697 71.9892 93.1031 71.9892ZM93.1031 69.2497C94.7697 69.2497 96.0595 68.6561 96.9727 67.469C97.9087 66.259 98.3767 64.6039 98.3767 62.5036C98.3767 60.4033 97.9087 58.7596 96.9727 57.5725C96.0595 56.3625 94.7697 55.7576 93.1031 55.7576C91.4366 55.7576 90.1353 56.3625 89.1993 57.5725C88.2633 58.7596 87.7953 60.4033 87.7953 62.5036C87.7953 64.6039 88.2633 66.259 89.1993 67.469C90.1353 68.6561 91.4366 69.2497 93.1031 69.2497Z" fill="#534CAB"/>
<path d="M84.336 192.809C84.336 182.249 85.68 171.929 88.368 161.849C91.152 151.769 95.04 142.121 100.032 132.905C105.12 123.593 111.12 114.905 118.032 106.841H62.88V90.5686H137.472V105.833C129.792 114.473 123.408 123.209 118.32 132.041C113.232 140.777 109.44 150.137 106.944 160.121C104.544 170.009 103.344 180.905 103.344 192.809H84.336ZM181.548 195.113C172.332 195.113 164.892 193.001 159.228 188.777C153.564 184.457 149.628 178.505 147.42 170.921L165.708 169.769C166.764 172.745 168.588 175.049 171.18 176.681C173.868 178.217 177.324 178.985 181.548 178.985C189.132 178.985 194.796 176.105 198.54 170.345C202.38 164.489 204.348 154.985 204.444 141.833L207.18 142.697C204.78 148.361 201.228 152.633 196.524 155.513C191.916 158.393 186.348 159.833 179.82 159.833C173.1 159.833 167.148 158.393 161.964 155.513C156.876 152.537 152.892 148.457 150.012 143.273C147.132 138.089 145.692 131.993 145.692 124.985C145.692 117.401 147.276 110.873 150.444 105.401C153.612 99.9286 157.98 95.7046 163.548 92.7286C169.212 89.7526 175.74 88.2646 183.132 88.2646C192.156 88.2646 199.596 90.2326 205.452 94.1686C211.404 98.0086 215.772 103.577 218.556 110.873C221.436 118.169 222.876 127.001 222.876 137.369C222.876 146.105 222.108 154.025 220.572 161.129C219.036 168.233 216.588 174.329 213.228 179.417C209.868 184.409 205.548 188.297 200.268 191.081C195.084 193.769 188.844 195.113 181.548 195.113ZM183.276 145.145C187.212 145.145 190.62 144.377 193.5 142.841C196.476 141.209 198.78 138.905 200.412 135.929C202.14 132.857 203.004 129.209 203.004 124.985C203.004 120.761 202.236 117.113 200.7 114.041C199.164 110.873 196.956 108.425 194.076 106.697C191.196 104.873 187.74 103.961 183.708 103.961C179.772 103.961 176.364 104.825 173.484 106.553C170.7 108.281 168.54 110.729 167.004 113.897C165.468 116.969 164.7 120.617 164.7 124.841C164.7 128.969 165.468 132.569 167.004 135.641C168.54 138.713 170.7 141.065 173.484 142.697C176.268 144.329 179.532 145.145 183.276 145.145ZM235.381 215.561L242.869 192.809H234.085V172.649H255.109V190.505L245.605 215.561H235.381ZM276.57 192.809C276.57 182.249 277.914 171.929 280.602 161.849C283.386 151.769 287.274 142.121 292.266 132.905C297.354 123.593 303.354 114.905 310.266 106.841H255.114V90.5686H329.706V105.833C322.026 114.473 315.642 123.209 310.554 132.041C305.466 140.777 301.674 150.137 299.178 160.121C296.778 170.009 295.578 180.905 295.578 192.809H276.57Z" fill="#534CAB"/>
<path d="M75.3 238.039L65.724 228.499H69.792L79.62 238.039H75.3ZM62.88 238.039V218.959H65.976V238.039H62.88ZM65.724 228.499L74.94 218.959H79.188L69.792 228.499H65.724ZM82.673 238.039V218.959H90.593C92.801 218.959 94.553 219.439 95.849 220.399C97.145 221.335 97.793 222.619 97.793 224.251C97.793 225.475 97.325 226.447 96.389 227.167C95.453 227.887 94.169 228.247 92.537 228.247V228.103C94.385 228.103 95.849 228.511 96.929 229.327C98.033 230.143 98.585 231.247 98.585 232.639C98.585 234.295 97.961 235.615 96.713 236.599C95.465 237.559 93.773 238.039 91.637 238.039H82.673ZM85.697 235.375H91.637C92.765 235.375 93.665 235.123 94.337 234.619C95.009 234.115 95.345 233.455 95.345 232.639C95.345 231.727 95.009 231.007 94.337 230.479C93.665 229.951 92.765 229.687 91.637 229.687H85.697V235.375ZM85.697 227.023H90.593C91.793 227.023 92.753 226.771 93.473 226.267C94.193 225.763 94.553 225.091 94.553 224.251C94.553 223.435 94.193 222.799 93.473 222.343C92.753 221.863 91.793 221.623 90.593 221.623H85.697V227.023ZM109.266 238.471C107.298 238.471 105.726 238.015 104.55 237.103C103.398 236.191 102.822 234.919 102.822 233.287C102.822 231.655 103.302 230.371 104.262 229.435C105.222 228.499 106.746 227.839 108.834 227.455L115.602 226.195C115.602 224.587 115.218 223.387 114.45 222.595C113.706 221.803 112.578 221.407 111.066 221.407C109.746 221.407 108.702 221.707 107.934 222.307C107.166 222.883 106.638 223.723 106.35 224.827L103.146 224.575C103.506 222.775 104.37 221.323 105.738 220.219C107.13 219.091 108.906 218.527 111.066 218.527C113.514 218.527 115.386 219.223 116.682 220.615C117.978 221.983 118.626 223.879 118.626 226.303V234.187C118.626 234.619 118.698 234.931 118.842 235.123C119.01 235.291 119.274 235.375 119.634 235.375H120.39V238.039C120.294 238.063 120.138 238.075 119.922 238.075C119.706 238.099 119.478 238.111 119.238 238.111C118.374 238.111 117.666 237.979 117.114 237.715C116.586 237.427 116.202 236.995 115.962 236.419C115.722 235.819 115.602 235.039 115.602 234.079L115.962 234.151C115.794 234.967 115.386 235.711 114.738 236.383C114.09 237.031 113.286 237.547 112.326 237.931C111.366 238.291 110.346 238.471 109.266 238.471ZM109.554 235.807C110.826 235.807 111.906 235.567 112.794 235.087C113.706 234.583 114.402 233.911 114.882 233.071C115.362 232.207 115.602 231.247 115.602 230.191V228.823L109.41 229.975C108.114 230.215 107.214 230.587 106.71 231.091C106.23 231.571 105.99 232.207 105.99 232.999C105.99 233.887 106.302 234.583 106.926 235.087C107.574 235.567 108.45 235.807 109.554 235.807ZM122.295 237.211V235.375H123.987C124.755 235.375 125.343 235.099 125.751 234.547C126.183 233.971 126.483 233.095 126.651 231.919L128.379 218.959H141.123V238.039H138.099V221.623H131.115L129.603 232.207C129.363 233.935 128.787 235.207 127.875 236.023C126.987 236.815 125.691 237.211 123.987 237.211H122.295ZM122.295 243.439V235.627H125.319V243.439H122.295ZM122.295 238.039V235.375H143.031V238.039H122.295ZM141.195 243.439V235.375H144.219V243.439H141.195ZM148.204 243.439V218.959H151.012L151.084 223.063L150.652 222.847C151.132 221.431 151.924 220.363 153.028 219.643C154.156 218.899 155.452 218.527 156.916 218.527C158.812 218.527 160.36 218.995 161.56 219.931C162.784 220.867 163.684 222.091 164.26 223.603C164.86 225.115 165.16 226.747 165.16 228.499C165.16 230.251 164.86 231.883 164.26 233.395C163.684 234.907 162.784 236.131 161.56 237.067C160.36 238.003 158.812 238.471 156.916 238.471C155.932 238.471 155.008 238.303 154.144 237.967C153.304 237.631 152.584 237.163 151.984 236.563C151.408 235.963 151.012 235.255 150.796 234.439L151.228 233.935V243.439H148.204ZM156.628 235.591C158.284 235.591 159.592 234.967 160.552 233.719C161.512 232.471 161.992 230.731 161.992 228.499C161.992 226.267 161.512 224.527 160.552 223.279C159.592 222.031 158.284 221.407 156.628 221.407C155.524 221.407 154.564 221.671 153.748 222.199C152.956 222.727 152.332 223.519 151.876 224.575C151.444 225.631 151.228 226.939 151.228 228.499C151.228 230.059 151.444 231.367 151.876 232.423C152.308 233.479 152.932 234.271 153.748 234.799C154.564 235.327 155.524 235.591 156.628 235.591ZM174.903 238.471C172.935 238.471 171.363 238.015 170.187 237.103C169.035 236.191 168.459 234.919 168.459 233.287C168.459 231.655 168.939 230.371 169.899 229.435C170.859 228.499 172.383 227.839 174.471 227.455L181.239 226.195C181.239 224.587 180.855 223.387 180.087 222.595C179.343 221.803 178.215 221.407 176.703 221.407C175.383 221.407 174.339 221.707 173.571 222.307C172.803 222.883 172.275 223.723 171.987 224.827L168.783 224.575C169.143 222.775 170.007 221.323 171.375 220.219C172.767 219.091 174.543 218.527 176.703 218.527C179.151 218.527 181.023 219.223 182.319 220.615C183.615 221.983 184.263 223.879 184.263 226.303V234.187C184.263 234.619 184.335 234.931 184.479 235.123C184.647 235.291 184.911 235.375 185.271 235.375H186.027V238.039C185.931 238.063 185.775 238.075 185.559 238.075C185.343 238.099 185.115 238.111 184.875 238.111C184.011 238.111 183.303 237.979 182.751 237.715C182.223 237.427 181.839 236.995 181.599 236.419C181.359 235.819 181.239 235.039 181.239 234.079L181.599 234.151C181.431 234.967 181.023 235.711 180.375 236.383C179.727 237.031 178.923 237.547 177.963 237.931C177.003 238.291 175.983 238.471 174.903 238.471ZM175.191 235.807C176.463 235.807 177.543 235.567 178.431 235.087C179.343 234.583 180.039 233.911 180.519 233.071C180.999 232.207 181.239 231.247 181.239 230.191V228.823L175.047 229.975C173.751 230.215 172.851 230.587 172.347 231.091C171.867 231.571 171.627 232.207 171.627 232.999C171.627 233.887 171.939 234.583 172.563 235.087C173.211 235.567 174.087 235.807 175.191 235.807ZM194.181 238.039V221.623H187.305V218.959H204.117V221.623H197.241V238.039H194.181ZM207.126 238.039V218.959H210.15V238.039H207.126ZM219.15 238.039V218.959H222.174V238.039H219.15ZM208.566 229.867V227.203H220.734V229.867H208.566ZM247.739 238.039V218.959H250.763V238.039H247.739ZM227.939 238.039V218.959H230.963V225.979H236.003C238.691 225.979 240.755 226.507 242.195 227.563C243.635 228.595 244.355 230.083 244.355 232.027C244.355 233.947 243.635 235.435 242.195 236.491C240.755 237.523 238.691 238.039 236.003 238.039H227.939ZM230.963 235.339H236.003C237.731 235.339 239.027 235.063 239.891 234.511C240.755 233.959 241.187 233.131 241.187 232.027C241.187 230.899 240.755 230.059 239.891 229.507C239.027 228.931 237.731 228.643 236.003 228.643H230.963V235.339ZM254.805 238.039L261.825 228.247L255.165 218.959H258.693L263.697 226.159L268.557 218.959H272.157L265.569 228.319L272.481 238.039H268.953L263.697 230.335L258.405 238.039H254.805ZM62.88 274.039V254.959H67.056L72.96 270.871L78.828 254.959H82.968V274.039H79.944V260.575L74.832 274.039H71.052L65.904 260.575V274.039H62.88ZM95.8203 274.471C94.0203 274.471 92.4603 274.063 91.1403 273.247C89.8443 272.431 88.8363 271.279 88.1163 269.791C87.4203 268.279 87.0723 266.515 87.0723 264.499C87.0723 262.483 87.4203 260.731 88.1163 259.243C88.8363 257.755 89.8323 256.603 91.1043 255.787C92.4003 254.947 93.9243 254.527 95.6763 254.527C97.3323 254.527 98.7963 254.923 100.068 255.715C101.34 256.483 102.324 257.611 103.02 259.099C103.74 260.587 104.1 262.399 104.1 264.535V265.435H90.2403C90.3603 267.475 90.9003 269.011 91.8603 270.043C92.8443 271.075 94.1643 271.591 95.8203 271.591C97.0683 271.591 98.0883 271.303 98.8803 270.727C99.6963 270.127 100.26 269.347 100.572 268.387L103.812 268.639C103.308 270.343 102.348 271.747 100.932 272.851C99.5403 273.931 97.8363 274.471 95.8203 274.471ZM90.2403 262.771H100.788C100.644 260.923 100.104 259.567 99.1683 258.703C98.2563 257.839 97.0923 257.407 95.6763 257.407C94.2123 257.407 93.0003 257.863 92.0403 258.775C91.1043 259.663 90.5043 260.995 90.2403 262.771ZM113.146 274.039V257.623H106.27V254.959H123.082V257.623H116.206V274.039H113.146ZM126.091 279.439V254.959H128.899L128.971 259.063L128.539 258.847C129.019 257.431 129.811 256.363 130.915 255.643C132.043 254.899 133.339 254.527 134.803 254.527C136.699 254.527 138.247 254.995 139.447 255.931C140.671 256.867 141.571 258.091 142.147 259.603C142.747 261.115 143.047 262.747 143.047 264.499C143.047 266.251 142.747 267.883 142.147 269.395C141.571 270.907 140.671 272.131 139.447 273.067C138.247 274.003 136.699 274.471 134.803 274.471C133.819 274.471 132.895 274.303 132.031 273.967C131.191 273.631 130.471 273.163 129.871 272.563C129.295 271.963 128.899 271.255 128.683 270.439L129.115 269.935V279.439H126.091ZM134.515 271.591C136.171 271.591 137.479 270.967 138.439 269.719C139.399 268.471 139.879 266.731 139.879 264.499C139.879 262.267 139.399 260.527 138.439 259.279C137.479 258.031 136.171 257.407 134.515 257.407C133.411 257.407 132.451 257.671 131.635 258.199C130.843 258.727 130.219 259.519 129.763 260.575C129.331 261.631 129.115 262.939 129.115 264.499C129.115 266.059 129.331 267.367 129.763 268.423C130.195 269.479 130.819 270.271 131.635 270.799C132.451 271.327 133.411 271.591 134.515 271.591ZM154.602 274.471C152.85 274.471 151.314 274.063 149.994 273.247C148.674 272.431 147.654 271.279 146.934 269.791C146.214 268.279 145.854 266.515 145.854 264.499C145.854 262.459 146.214 260.695 146.934 259.207C147.654 257.719 148.674 256.567 149.994 255.751C151.314 254.935 152.85 254.527 154.602 254.527C156.354 254.527 157.878 254.935 159.174 255.751C160.494 256.567 161.514 257.719 162.234 259.207C162.954 260.695 163.314 262.459 163.314 264.499C163.314 266.515 162.954 268.279 162.234 269.791C161.514 271.279 160.494 272.431 159.174 273.247C157.878 274.063 156.354 274.471 154.602 274.471ZM154.602 271.591C156.354 271.591 157.71 270.967 158.67 269.719C159.654 268.447 160.146 266.707 160.146 264.499C160.146 262.291 159.654 260.563 158.67 259.315C157.71 258.043 156.354 257.407 154.602 257.407C152.85 257.407 151.482 258.043 150.498 259.315C149.514 260.563 149.022 262.291 149.022 264.499C149.022 266.707 149.514 268.447 150.498 269.719C151.482 270.967 152.85 271.591 154.602 271.591ZM167.435 274.039V254.959H175.355C177.563 254.959 179.315 255.439 180.611 256.399C181.907 257.335 182.555 258.619 182.555 260.251C182.555 261.475 182.087 262.447 181.151 263.167C180.215 263.887 178.931 264.247 177.299 264.247V264.103C179.147 264.103 180.611 264.511 181.691 265.327C182.795 266.143 183.347 267.247 183.347 268.639C183.347 270.295 182.723 271.615 181.475 272.599C180.227 273.559 178.535 274.039 176.399 274.039H167.435ZM170.459 271.375H176.399C177.527 271.375 178.427 271.123 179.099 270.619C179.771 270.115 180.107 269.455 180.107 268.639C180.107 267.727 179.771 267.007 179.099 266.479C178.427 265.951 177.527 265.687 176.399 265.687H170.459V271.375ZM170.459 263.023H175.355C176.555 263.023 177.515 262.771 178.235 262.267C178.955 261.763 179.315 261.091 179.315 260.251C179.315 259.435 178.955 258.799 178.235 258.343C177.515 257.863 176.555 257.623 175.355 257.623H170.459V263.023Z" fill="#534CAB"/>
<path d="M0.00012207 320.809L0 355.809H507.467C636.234 355.809 581.027 320.809 709.867 320.809H0.00012207Z" fill="#FEFEFE"/>
</mask>
<g mask="url(#mask0_448_1203)">
</g>
</svg>
