<?xml version="1.0" encoding="utf-8"?><svg viewBox="0 0 1920 581" xmlns="http://www.w3.org/2000/svg" xmlns:xlink="http://www.w3.org/1999/xlink"><style>:root>svg{display:none}:root>svg:target{display:block}</style><svg viewBox="0 0 900 35" id="about-figure" xmlns="http://www.w3.org/2000/svg"><path d="M0 .052V34.81h519c131.694 0 75.232-34.757 207-34.757H0Z"/></svg><svg viewBox="0 0 12 18" id="arr-back" xmlns="http://www.w3.org/2000/svg"><path d="M11 17 2 9l9-8"/></svg><svg viewBox="0 0 20 36" id="arr-left" xmlns="http://www.w3.org/2000/svg"><path opacity=".7" d="M17 33 2.92 18.92c-.198-.198-.297-.297-.358-.398a1 1 0 0 1 0-1.044c.061-.101.16-.2.357-.397L17 3"/></svg><svg viewBox="0 0 15 25" id="arr-left-dark" xmlns="http://www.w3.org/2000/svg"><path d="m12 22.838-9.08-9.08c-.198-.198-.297-.297-.358-.398a1 1 0 0 1 0-1.045c.061-.1.16-.2.357-.396L12 2.838"/></svg><svg viewBox="0 0 880 36" id="ben-figure" xmlns="http://www.w3.org/2000/svg"><path d="M880 35.809v-35H372.533c-128.767 0-73.56 35-202.4 35H880Z"/></svg><svg viewBox="0 0 145 6" id="btn-mask" xmlns="http://www.w3.org/2000/svg"><path d="M0 0v6h86.374c22.247 0 35.972-6 58.232-6H0Z"/></svg><svg viewBox="0 0 726 35" id="building-mask" xmlns="http://www.w3.org/2000/svg"><path d="M0 0v34.756h519C650.694 34.756 594.232 0 726 0H0Z"/></svg><svg viewBox="0 0 726 36" id="choice-mask" xmlns="http://www.w3.org/2000/svg"><path d="M0 .838v34.756h519c131.694 0 75.232-34.756 207-34.756H0Z"/></svg><svg viewBox="0 0 420 161" id="comfort-mask-1" xmlns="http://www.w3.org/2000/svg"><mask id="aia" maskUnits="userSpaceOnUse" x="0" y="0" width="420" height="161"><path d="M0 150.725h.001v1.772h126.626c61.491 0 73.543 9.148 135.03 8.283 40.912-.575 158.114-.001 158.343 0V10.952H0v139.773ZM293.373 9.179c-61.491 0-73.543-9.149-135.03-8.283C117.391 1.472 0 .896 0 .896V10.95h420V9.18H293.373Z"/></mask><g mask="url(#aia)"><path d="M-.5-76.519h420v280.08H-.5z"/></g></svg><svg viewBox="0 0 420 161" id="comfort-mask-2" xmlns="http://www.w3.org/2000/svg"><mask id="aja" maskUnits="userSpaceOnUse" x="0" y="0" width="420" height="161"><path d="m420 150.725-.001 1.772H293.373c-61.491 0-73.543 9.148-135.03 8.283-40.912-.575-158.114-.001-158.343 0V10.952h420v139.773ZM126.627 9.179c61.491 0 73.543-9.149 135.03-8.283 40.952.576 158.343 0 158.343 0V10.95H0V9.18h126.627Z"/></mask><g mask="url(#aja)"><path d="M0-76.912h420v315H0z"/></g></svg><svg viewBox="0 0 20 30" id="control-left" xmlns="http://www.w3.org/2000/svg"><path d="M17 29 2 15 17 1"/></svg><svg viewBox="0 0 929 36" id="footer-mask" xmlns="http://www.w3.org/2000/svg"><path d="M929 35.594v-35H441.8c-280.947 0-160.496 35-441.6 35H929Z"/></svg><svg viewBox="0 0 726 20" id="gallery-mask" xmlns="http://www.w3.org/2000/svg"><path d="M0 20V0h519c131.694 0 75.232 20 207 20H0Z"/></svg><svg viewBox="0 0 991 25" id="header-fig" xmlns="http://www.w3.org/2000/svg"><path d="M162.5 0S382.222 24.756 470 24.756C601.694 24.756 724.232 0 856 0H162.5Z"/></svg><svg viewBox="0 0 502.664 502.664" xml:space="preserve" id="icon" xmlns="http://www.w3.org/2000/svg"><path d="M153.821 358.226 0 274.337v-46.463l153.821-83.414v54.574L46.636 250.523l107.185 53.431v54.272zm26.273 29.358L282.103 115.08h32.227L212.084 387.584h-31.99zm168.749-29.358v-54.272l107.164-52.999-107.164-52.59v-53.927l153.821 83.522v46.183l-153.821 84.083z"/></svg><svg viewBox="0 0 40 40" id="insta" xmlns="http://www.w3.org/2000/svg"><path d="M40 40H0V0h40v40ZM15.832 10A5.84 5.84 0 0 0 10 15.835v8.333A5.84 5.84 0 0 0 15.835 30h8.333A5.84 5.84 0 0 0 30 24.165v-8.333A5.84 5.84 0 0 0 24.165 10h-8.333ZM20 15c2.758 0 5 2.242 5 5s-2.242 5-5 5-5-2.242-5-5 2.242-5 5-5Zm0 1.667a3.334 3.334 0 1 0-.002 6.667A3.334 3.334 0 0 0 20 16.667Zm5.833-3.334a.834.834 0 1 1 0 1.666.834.834 0 0 1 0-1.666Z"/></svg><svg viewBox="0 0 30 30" id="logo-small" xmlns="http://www.w3.org/2000/svg"><path fill-rule="evenodd" clip-rule="evenodd" d="M8.393 1.63A20.81 20.81 0 0 1 16.468 0h9.441v6.818h-9.44c-1.865 0-3.711.373-5.43 1.097a20.81 20.81 0 0 1-8.076 1.63H0V2.727h2.963c1.865 0 3.711-.373 5.43-1.096Zm0 10.228a20.809 20.809 0 0 1 8.075-1.63h4.424a8.427 8.427 0 0 1 8.426 8.426v.192a8.427 8.427 0 0 1-8.426 8.427h-4.424c-1.864 0-3.71.372-5.43 1.096A20.81 20.81 0 0 1 2.964 30H0v-6.818h2.963c1.865 0 3.711-.373 5.43-1.097a20.81 20.81 0 0 1 8.075-1.63h4.424c.888 0 1.608-.72 1.608-1.609v-.192c0-.888-.72-1.608-1.608-1.608h-4.424c-1.864 0-3.71.372-5.43 1.096a20.81 20.81 0 0 1-8.075 1.63H0v-6.817h2.963c1.865 0 3.711-.373 5.43-1.097Z"/></svg><svg viewBox="0 0 108 130" id="marker" xmlns="http://www.w3.org/2000/svg"><path d="m53.572 129.343-22.196-22.197H0V0h107.146v107.146H75.769l-22.197 22.197Z"/><path fill-rule="evenodd" clip-rule="evenodd" d="M44.67 26.718a39.527 39.527 0 0 1 15.34-3.098h17.93v12.95H60.01c-3.543 0-7.05.709-10.314 2.083a39.528 39.528 0 0 1-15.338 3.098H28.73V28.8h5.628c3.542 0 7.048-.709 10.313-2.083Zm0 19.425a39.525 39.525 0 0 1 15.34-3.097h8.4c8.84 0 16.006 7.166 16.006 16.005v.365c0 8.84-7.166 16.005-16.005 16.005h-8.402c-3.542 0-7.048.709-10.313 2.083a39.528 39.528 0 0 1-15.338 3.098H28.73v-12.95h5.628c3.542 0 7.048-.709 10.313-2.083a39.527 39.527 0 0 1 15.338-3.098h8.401a3.055 3.055 0 0 0 3.055-3.055v-.365a3.055 3.055 0 0 0-3.055-3.055h-8.4c-3.543 0-7.05.708-10.314 2.083a39.526 39.526 0 0 1-15.338 3.097H28.73v-12.95h5.628a26.57 26.57 0 0 0 10.313-2.083Z"/></svg><svg viewBox="0 0 145 7" id="more-btn-mask" xmlns="http://www.w3.org/2000/svg"><path d="M0 .83v6h86.374c22.247 0 35.972-6 58.232-6H0Z"/></svg><svg viewBox="0 0 1920 488" id="more-info-mask" xmlns="http://www.w3.org/2000/svg"><mask id="ata" maskUnits="userSpaceOnUse" x="-1" y="0" width="1922" height="488"><path d="M1920 457.838h-755.48c-281.099 0-157.44 30-440.667 30H0V31.069h755.475c281.105 0 159.585-33.133 440.675-30 187.2 2.087 723.85 0 723.85 0v456.769Z"/></mask><g mask="url(#ata)"><path d="M0-831.615h1920v1536H0z"/></g></svg><svg viewBox="0 0 900 581" id="more-mask-1" xmlns="http://www.w3.org/2000/svg"><mask id="aua" maskUnits="userSpaceOnUse" x="0" y="0" width="900" height="581"><path d="M0 31.068h271.343c131.767 0 157.592-33.133 289.351-30 87.754 2.087 339.306 0 339.306 0V550.14H628.657c-131.767 0-157.591 33.133-289.35 30-87.754-2.087-339.307 0-339.307 0V31.069Z"/></mask><g mask="url(#aua)"><path d="M-80.163-58.041h1061.34v696.764H-80.163z"/></g></svg><svg viewBox="0 0 900 581" id="more-mask-2" xmlns="http://www.w3.org/2000/svg"><mask id="ava" maskUnits="userSpaceOnUse" x="0" y="0" width="900" height="581"><path d="M900 580.859H561c-134.5 0-158.976-30.713-289.657-30.713H0V1.076c.031 0 251.557 2.087 339.306 0C471.065-2.058 497.232 29.859 629 29.859c130.682 0 271 .008 271 .008v550.992Z"/></mask><g mask="url(#ava)"><path d="M-43.75-310.515h962.162v1202.61H-43.75z"/></g></svg><svg viewBox="0 0 574 301" id="news-mask" xmlns="http://www.w3.org/2000/svg"><mask id="awa" maskUnits="userSpaceOnUse" x="0" y="0" width="574" height="301"><path d="M0 281.606h.002v3.322h172.854c83.941 0 100.392 17.151 184.328 15.529 55.902-1.08 216.149 0 216.149 0v-18.853h-.002V19.559H0v262.047ZM400.477 16.231c-83.941 0-100.392-17.15-184.328-15.529C160.25 1.782.017.702 0 .702v18.854h573.331V16.23H400.477Z"/></mask><g mask="url(#awa)"><path d="M-81-3.289h654v368H-81z"/></g></svg><svg viewBox="0 0 727 31" id="possible-mask" xmlns="http://www.w3.org/2000/svg"><path d="M727 30.838V.468H457.763c-99.649 0-67.504 30.37-167.21 30.37H0h727Z"/></svg><svg viewBox="0 0 834 31" id="possible-mask-bottom" xmlns="http://www.w3.org/2000/svg"><path d="M0 .838v30h595.697c151.155 0 86.35-30 237.59-30H0Z"/></svg><svg viewBox="0 0 40 41" id="tel" xmlns="http://www.w3.org/2000/svg"><path d="M40 40.052H0v-40h40v40ZM15.849 10.423a.431.431 0 0 0-.575-.055c-2.166 1.638-5.232 5.804-1.587 10.528.969 1.256 2.088 2.407 3.091 3.412 1.006 1.004 2.157 2.124 3.413 3.093 4.724 3.644 8.89.578 10.529-1.588a.432.432 0 0 0-.057-.575l-1.6-1.516c-2.79-2.79-2.79-2.79-4.925-.656-1.491 1.49-3.277-.438-4.472-1.645-1.207-1.195-3.137-2.981-1.646-4.472 2.135-2.135 2.136-2.135-.656-4.926l-1.515-1.6Z"/></svg><svg viewBox="0 0 40 41" id="whatsapp" xmlns="http://www.w3.org/2000/svg"><path d="M40 40.052H0v-40h40v40Zm-19.004-31c-5.513 0-9.997 4.486-9.997 10 0 2.187.705 4.216 1.904 5.862l-1.246 3.715 3.843-1.228a9.923 9.923 0 0 0 5.501 1.651c5.513 0 9.998-4.485 9.998-10 0-5.514-4.485-10-9.998-10h-.005Zm-3.762 4.574c.626 0 .764.012.97.506.241.582.83 2.016.9 2.163.288.603-.294.957-.717 1.482-.135.158-.288.329-.117.623.17.288.758 1.246 1.622 2.016 1.116.994 2.02 1.312 2.344 1.447.241.1.53.076.705-.111.223-.242.5-.642.783-1.036.199-.282.451-.318.716-.218.18.063 2.454 1.12 2.55 1.289.071.123.071.704-.17 1.386-.24.683-1.199 1.247-1.963 1.412-.523.111-1.205.199-3.502-.754-2.582-1.069-6.165-4.878-6.165-7.412 0-1.29.744-2.793 2.044-2.793Z"/></svg></svg>